/* XPM */
static char *_5c8236dfa114e4ea664dc2530db6576qcTMJn4QC4qO9xaq[] = {
/* columns rows colors chars-per-pixel */
"100 100 7 1 ",
"  c #464646",
". c #990030",
"X c #ED1C24",
"o c #546D8E",
"O c #B4B4B4",
"+ c #FFA3B1",
"@ c white",
/* pixels */
"XXXXXXXXXo + X.@.OXXXXXXXXXo + X.@.OXXXXXXXXXo + X.@.OXXXXXXXXXo + X.@.OXXXXXXXXXo + X.@.OXXXXXXXXXo",
"XXXXXXXX+ + o .@.OXXXXXXXX+ + o .@.OXXXXXXXX+ + o .@.OXXXXXXXX+ + o .@.OXXXXXXXX+ + o .@.OXOOXXXXX+ ",
"...............@.................@.................@.................@.................@...OO.O.....",
"@@@@@@@@@@@@@@@@@@@@@@@@@@@@@@@@@@@@@@@@@@@@@@@@@@@@@@@@@@@@@@@@@@@@@@@@@@@@@@@@@@@@@@@@OO@OO@O@@@@@",
"......@.................@.................@.................@.................@........O.OOO..O.@...",
"XXXX .@.OOOOOOOXXXXXXX .@.OOOOOOOXXXXXXX .@.OOOOOOOXXXXXXX .@.OOOOOOOXXXXXXX .@.OOOOOOOOOXXXXO OO.OO",
"XXX X.@.OOXXXXXXXXXXX X.@.OOXXXXXXXXXXX X.@.OOXXXXXXXXXXX X.@.OOXXXXXXXXXXX X.@.OOXXXXOXOOOXO XOO.OO",
"o + X.@.OXXXXXXXXXo + X.@.OXXXXXXXXXo + X.@.OXXXXXXXXXo + X.@.OXXXXXXXXXo + X.@.OXXXXXOXOOOO+OOOOOOX",
" + o .@.OXXXXXXXX+ + o .@.OXXXXXXXX+ + o .@.OXXXXXXXX+ + o .@.OXXXXXXXX+ + o .@.OXXXXXXOXO + OOOO.OX",
"......@.................@.................@.................@.................@.......O.O.O.O.OOO...",
"@@@@@@@@@@@@@@@@@@@@@@@@@@@@@@@@@@@@@@@@@@@@@@@@@@@@@@@@@@@@@@@@@@@@@@@@@@@@@@@@@@@@@@@OO@@O@@OOO@@@",
"...............@.................@.................@.................@.................@O.O.O.......",
"OOOOOOXXXXXXX .@.OOOOOOOXXXXXXX .@.OOOOOOOXXXXXXX .@OOOOOOOOXXXXXXX .@.OOOOOOOXXXXXXX .@.OOOOOOOXXXX",
"OXXXXXXXXXXX X.@.OOXXXXXXXXXXX X.@.OOXXXXXXXXXXX XOOOOOOXOOXXXXXXX X.@.OOXXXXXXXXXXX X.@.OOXXXXXXXXX",
"XXXXXXXXXo + X.@.OXXXXXXXXXo + X.@.OXXXXXXXXXo + O.OOOXOOOXXXXXo + X.@.OXXXXXXXXXo + X.@.OXXXXXXXXXo",
"XXXXXXXX+ + o .@.OXXXXXXXX+ + o .@.OXXXXXXXX+ + o O@OOOOXOOOXX+ + o .@.OXXXXXXXX+ + o .@.OXXXXXXXX+ ",
"...............@.................@................OO.OOOOOOO.........@.................@............",
"@@@@@@@@@@@@@@@@@@@@@@@@@@@@@@@@@@@@@@@@@@@@@@@@O@@@O@OOOOOO@@@@@@@@@@@@@@@@@@@@@@@@@@@@@@@@@@@@@@@@",
"......@.................@.................@......OO...OOOOO.@.................@.................@...",
"XXXX .@.OOOOOOOXXXXXXX .@.OOOOOOOXXXXXXX .@.OOOOOOOOOOXOXOOO@.OOOOOOOXXXXXXX .@.OOOOOOOXXXXXXX .@.OO",
"XXX X.@.OOXXXXXOOXOOXOX.@.OOXXXXXXXXXXX X.@.OOXXXXXXXXOOO OO@.OOXXXXXXXXXXX X.@.OOXXXXXXXXXXX X.@.OO",
"o + X.@.OXXXXXXXOOO O O.@.OXXXXXXXXXo + X.@.OXXXXXOOXOo O O.@.OXXXXXXXXXo + X.@.OXXXXXXXXXo + X.@.OX",
" + o .@.OXXXXOXOXOOOOOO.@.OXXXXXXXX+ + o .@.OXXXXXXOOOOO O .@.OXXXXXXXX+ + o .@.OXXXXXXXX+ + o .@.OX",
"......@..........OOOO.OOO.................@..........O..O...@.................@.................@...",
"@@@@@@@@@@@@@@O@@OOOOOOO@@@@@@@@@@@@@@@@@@@@@@@@@@@@@@@@@@@@@@@@@@@@@@@@@@@@@@@@@@@@@@@@@@@@@@@@@@@@",
"............O.O@OOOOO..OO........@.................@.................@.................@............",
"OOOOOOXXXXXXXO.@.OOOOOOOXXXXXXX .@.OOOOOOOXXXXXXX .@.OOOOOOOXXXXXXX .@.OOOOOOOXXXXXXX .@.OOOOOOOXXXX",
"OXXXXXXXXXXXOXOOOOOXOOOOXXXXXX X.@.OOXXXXXXXXXXX X.@.OOXXXXXXXXXXX X.@.OOXXXXXXXXXXX X.@.OOXXXXXXXXX",
"XXXXXXXXXo + XOO.OOOOXOXXXXo + X.@.OXXXXXXXXXo + X.@.OXXXXXXXXXo + X.@.OXXXXXXXXXo + X.@.OXXXXXXXXXo",
"XXXXXXXX+ + o O@OOXOOOOXXX+ + o .@.OXXXXXXXX+ + o .@.OXXXXXXXX+ + o .@.OXXXXXXXX+ + o .@.OXXXXXXXX+ ",
"...............OOOOOO............@.................@.................@.................@............",
"@@@@@@@@@@@@@@@@@@@@@@@@@@@@@@@@@@@@@@@@@@@@@@@@@@@@@@@@@@@@@@@@@@@@@@@@@@@@@@@@@@@@@@@@@@@@@@@@@@@@",
"......@.................@.................@.................@.................@.................@...",
"XXXX .@.OOOOOOOXXXXXXX .@.OOOOOOOXXXXXXX .@.OOOOOOOXXXXXXX .@.OOOOOOOXXXXXXX .@.OOOOOOOXXXXXXX .@.OO",
"XXX X.@.OOXXXXXXXXXXX X.@.OOOXOOOXXXXXX X.@.OOXXXXXXXXXXX X.@.OOOOXXXXXXXXX X.@.OOXXXXXXXXXXX X.@.OO",
"o + X.@.OXXXXXXXXXo + X.@.OXXXOOOOXXo + X.@.OXXXXXXXXXo + X.@.OXOOOXXOXXo + X.@.OXXXXXXXXXo + X.@.OX",
" + o .@.OXXXXXXXX+ + o .@OOXOOOXOOX+ + o .@.OXXXXXXXX+ + o .@.OXOXOXXOX+ + o .@.OXXXXXXXX+ + o .@.OX",
"......@.................O......OOOO.......@.................@.O.OOOO..........@.................@...",
"@@@@@@@@@@@@@@@@@@@@@@@OOO@OOO@O@@OO@@@@@@@@@@@@@@@@@@@@@@@@@@OOOOO@OOO@@@@@@@@@@@@@@@@@@@@@@@@@@@@@",
"...............@.........OOOOO.OOOO................@........O.O...O..O.................@............",
"OOOOOOXXXXXXX .@.OOOOOOOOXOXOOO O@OOOOOOOOXXXXXXX .@.OOOOOOOOOOOOOO OOOOOOOOOOXXXXXXX .@.OOOOOOOXXXX",
"OXXXXXXXXXXX X.@.OOXXXXXOOXOXOOO.OOOOXXXXXXXXXXX X.@.OOXXXXXOOXOOOOX.@.OOXXXXXXXXXXX X.@.OOXXXXXXXXX",
"XXXXXXXXXo + X.@.OXXXXXXXOOOOOOOOOOOXXXXXXXXXo + X.@.OXXXXXOOXXO OOX.O.OXXXXXXXXXo + X.@.OXXXXXXXXXo",
"XXXXXXXX+ + o .@.OXXXXXXXX+OO OOOO.OXXXXXXXX+ + o .@.OXXXXXXXO+OOOOOO@.OXXXXXXXX+ + o .@.OXXXXXXXX+ ",
"...............@...........OO.O..@.................@..........O.OOO.O@.................@............",
"@@@@@@@@@@@@@@@@@@@@@@@@@@@@OO@@@@@@@@@@@@@@@@@@@@@@@@@@@@@@@O@OO@OO@@@@@@@@@@@@@@@@@@@@@@@@@@@@@@@@",
"......@.................@.................@.................@.................@.................@...",
"XXXX .@.OOOOOOOXXXXXXX .@.OOOOOOOXXXXXXX .@.OOOOOOOXXXXXXX .@.OOOOOOOXXXXXXX .@.OOOOOOOXXXXXXX .@.OO",
"XXX X.@.OOXXXXXXXXXXX X.@.OOXXXXXXXXXXX X.@.OOXXXXXXXXXXX X.@.OOXXXXXXXXXXX X.@.OOXXXXXXXXXXX X.@.OO",
"o + X.@.OXXXXXXXXXo + X.@.OXXXXXXXXXo + X.@.OXXXXXXXXXo + X.@.OXXXXXXXXXo + X.@.OXXXOOXXXXo + X.@.OX",
" + o .@.OXXXXXXXX+ + o .@.OXXXXXXXX+ + o .@.OXXXXXXXX+ + o .@.OXXXXXXXX+ + o .@.OXXOXOOXX+ + o .@.OX",
"......@.................@.................@.................@.................@.OOO..OO.O.......@...",
"@@@@@@@@@@@@@@@@@@@@@@@@@@@@@@@@@@@@@@@@@@@@@@@@@@@@@@@@@@@@@@@@@@@@@@@@@@@@@@@OOOO@OOOO@@@@@@@@@@@@",
"...............@..............OO.@.................@.................@...........OOOO..O............",
"OOOOOOXXXXXXX .@.OOOOOOOXXXXXXXO.O.OOOOOOOXXXXXXX .@.OOOOOOOXXXXXXX .@.OOOOOOOOXXOOOOO.O.OOOOOOOXXXX",
"OXXXXXXXXXXX X.@.OOXXXXXXXXXOOOO.OOOOXXXXXXXXXXX X.@.OOXXXXXXXXXXX X.@.OOXXXXXXOXOXO XOOOOOXXXXXXXXX",
"XXXXXXXXXo + X.@.OXXXXXXXXXO O X.@OOOXXXXXXXXo + X.@.OXXXXXOOOOO O X.@.OXXXXXXXXOO OOOO@OOXXXXXXXXXo",
"XXXXXXXX+ + o .@.OXXXXXXXX+O+ o OOOOOOXXXXXX+ + o .@.OXXXXOXOXOOOOo .@.OXXXXXXXO+OO OOOOOOXXXXXXXX+ ",
"...............@..........OOOO.O.OOOOO.............@.....O.OOO.OO.O..@.........O.O.O.OO@OO.......O..",
"@@@@@@@@@@@@@@@@@@@@@@@@@@OOO@OOOOO@@O@@@@@@@@@@@@@@@@@@OO@O@O@O@O@OO@@@@@@@@@@@@OO@OO@@O@@@@OOOO@@@",
"......@.................@...OO.OO.OO.O....@..............OO.@.O.O.O.O.........@....OOO.O....O.OO@OO.",
"XXXX .@.OOOOOOOXXXXXXX .@.OOOOOOOOOOOXXX .@.OOOOOOOXXXXXXOOOO.OOOOOOOXXXXXXX .@.OOOOOOOXXXXOXXOO@.OO",
"XXX X.@.OOXXXXXXXXXXX X.@.OOXOOXOOOOXXX X.@.OOXXXXXXXXXXOOO.@.OOOOOXXXXXXXX X.@.OOXXXXXXXXOXO OOO.OO",
"o + X.@.OXXXXXXXXXo + X.@.OXOXOOOXOOo + X.@.OXXXXXXXXXo +OOO@.OOOOOOOXXXo + X.@.OXXXXXXXXXoOOOOOO.OO",
" + o .@.OXXXXXXXX+ + o .@.OXXOXXOOO+O+ o .@.OXXXXXXXX+ + oO.@.OOOOXXXXX+ + o .@.OXXXXXXXX+OO oOOOOOO",
"......@.................@.......OO........@................O@O.O.OO...........@............OOO.O@OOO",
"@@@@@@@@@@@@@@@@@@@@@@@@@@@@@@@@@@@@@@@@@@@@@@@@@@@@@@@@@@@OOOOOO@@@@@@@@@@@@@@@@@@@@@@@@@@OOOOOO@@O",
"..........O....@.................@.................@........O........@.................@...OOO.OO.OO",
"OOOOOOXXXOXXXOO@.OOOOOOOXXXXXXX .@.OOOOOOOXXXXXXX .@OOOOOOOOXXXXXXX .@.OOOOOOOXXXXXXX .@.OOOOOOOOXOO",
"OXXXXXXXOXXXOX.@.OOXXXXXXXXXXX X.@.OOXXXXXXXXXXX XO@.OOXXXXXXXXXXX X.@.OOXXXXXXXXXXX X.@.OOXXOXXOOXO",
"XXXXXXXOXO +OO.OOOXXXXXXXXXo + X.@.OXXXXXXXXXo + X.@.OOXOXXXXXXo + X.@.OXXXXXXXXXo + X.@.OXXXXOXOXXo",
"XXXXXXOXOOO o O@.OXXXXXXXX+ + o .@.OXXXXXXXX+ + oOOOOOOOOOXXXX+ + o .@.OXXXXXXXX+ + o .@.OXXXXXXXX+ ",
"........O....OOO.................@.............OO.OOO.O.O............@.................@............",
"@@@@@@OO@O@@@@O@O@@@@@@@@@@@@@@@@@@@@@@@@@@@@@@@@OOOOO@@@OO@@@@@@@@@@@@@@@@@@@@@@@@@@@@@@@@@@@@@@@@@",
"......@O.OO...OO........@.................@....OOOO......O..@.................@.................@...",
"XXXX .@.OOOOOOOOOOXXXX .@.OOOOOOOXXXXXXX .@.OOOOOOOXOOXXXOO.@.OOOOOOOXXXXXXX .@.OOOOOOOXXXXXXX .@.OO",
"XXX X.O.OOOOXOXOXXXXX X.@.OOXXXXXXXXXXX X.@.OOXXXXOOOOOOO X.@.OOXXXXXXXXXXX X.@.OOXXXXXXXXXXX X.@.OO",
"o + X.@.OXOOOXOXXXo + X.@.OXXXXXXXXXo + X.@.OXXXXXOOXOOO+ X.@.OXXXXXXXXXo + X.@.OXXXXXXXXXo + X.@.OX",
" + o .@.OOOXXXOXX+ + o .@.OXXXXXXXX+ + o .@.OXXXXXOXOOO+Oo .@.OXXXXXXXX+ + o .@.OXXXXXXXX+ + o .@.OX",
"......@.................@.................@..........OOO....@.................@.................@...",
"@@@@@@@@@@@@@@@@@@@@@@@@@@@@@@@@@@@@@@@@@@@@@@@@@@@@@@@@@@@@@@@@@@@@@@@@@@@@@@@@@@@@@@@@@@@@@@@@@@@@",
"...............@.................@.................@.................@.................@............",
"OOOOOOXXXXXXX .@.OOOOOOOXXXXXXX .@.OOOOOOOXXXXXXX .@.OOOOOOOXXXXXXX .@.OOOOOOOXXXXXXX .@.OOOOOOOXXXX",
"OXXXXXXXXXXX X.@.OOXXXXXXXXXXX X.@.OOXXXXXXXXXXX X.@.OOXXXXXXXXXXX XOOOOOXXXXXXXXXXX X.@OOOXXXXXXXXX",
"XXXXXXXXXo + X.@.OXXXXXXXXXo + X.@.OOXXXXXXXXo + X.@.OXXXXXXXXXo + XO@.OOOXOXXXXXo + X.O.OXOXXXXXXXo",
"XXXXXXXX+ + o .@.OXXXXXXXX+ + o OO.OXOXXXXXX+ + o .@.OXXXXXXXX+ + OOOO.OOOXOOXXX+ + OO.OOOOXXXXXXX+ ",
"...............@................OOOOOOOO...........@.............OOOO@OOOO....O..OOO.OOO.OOOO.......",
"@@@@@@@@@@@@@@@@@@@@@@@@@@@@@@@O@OOO@O@O@@@@@@@@@@@@@@@@@@@@@@@@@OOOOO@@@OO@@OOOOO@O@@@O@@OOO@@@@@@@",
"......@.................@.....O...O.OO..OO@.................@......OOOOOO..OOO@..OO..OO.OOO.....@...",
"XXXX .@.OOOOOOOXXXXXXX .@.OOOOOOOXXOXXXOOO@.OOOOOOOXXXXXXX .@.OOOOOOOXOOOOXOO.O.OOOOOOOXOOXXOO .@.OO",
"XXX X.@.OOXXXXXXXXXXX X.@.OOXXOOXOXOOXXOO.@.OOXXXXXXXXXXX X.@.OOXXOOOXXOXOO OOOOOOOOOOXXOOXXOOO.@.OO",
"o + X.@.OXXXXXXXXXo + X.@.OXXOOOOOOOOOOOOO@.OXXXXXXXXXo + X.@.OXXXXOXOOXo OOOOOOOXOOOOXXOOOOOOO.@.OX",
" + o .@.OXXXXXXXX+ + o .@.OXXXOOXXOO +Oo O@.OXXXXXXXX+ + o .@.OXXXXXOXOOO+OoO.O.OXOOOOOXX+O+OO .@.OX",
"......@.................@.....OOO.OOOOOO..@.................@.......OOO..O.OOOOO..O.OOO.O.O.....@...",
"@@@@@@@@@@@@@@@@@@@@@@@@@@@@@@@@OO@@O@OO@@@@@@@@@@@@@@@@@@@@@@@@@@@@@@@@O@@@OO@@OOOOO@OOOOO@@@@@@@@@",
"...............@.................@.O.OO............@.................@......O..OO.OO.O.@............",
"OOOOOOXXXXXXX .@.OOOOOOOXXXXXXX .@.OOOOOOOXXXXXXX .@.OOOOOOOXXXXXXX .@.OOOOOOOXXOXOXO .@.OOOOOOOXXXX",
"OXXXXXXXXXXX X.@.OOXXXXXXXXXXX X.@.OOXXXXXXXXXXX X.@.OOXXXXXXXXXXX X.@.OOXXXXXXXOXXX X.@.OOXXXXXXXXX",
"XXXXXXXXXo + X.@.OXXXXXXXXXo + X.@.OXXXXXXXXXo + X.@.OXXXXXXXXXo + X.@.OXXXXXXXXXo + X.@.OXXXXXXXXXo",
"XXXXXXXX+ + o .@.OXXXXXXXX+ + o .@.OXXXXXXXX+ + o .@.OXXXXXXXX+ + o .@.OXXXXXXXX+ + o .@.OXXXXXXXX+ "
};
