/* XPM */
static char *d8f4a478f71447cca38ad2b7eb5c9df5vWnUMqD8EwmdEwb3[] = {
/* columns rows colors chars-per-pixel */
"100 100 10 1 ",
"  c None",
". c black",
"X c #42320C",
"o c #464646",
"O c #ED1C24",
"+ c #9C5A3C",
"@ c #E5AA7A",
"# c #4D6DF3",
"$ c #99D9EA",
"% c white",
/* pixels */
"$$$$$$$$$$$$$$$$$$$$$$$$$$$$$$$$$$$$$$$$$$$$$$$$$$$$$$$$$$$$$$$$$$$$$$$$$$$$$$$$$$$$$$$$$$$$$$$$$$$$",
"$$$$$$$$$$$$$$$$$$$$$$$$$$$$$$$$$$$$$$$$$$$$$$$$$$$$$$$$$$$$$$$$$$$$$$$$$$$$$$$$$$$$$$$$$$$$$$$$$$$$",
"$$$$$$$$$$$$$$$$$$$$$$$$$$$$$$$$$$$$$$$$$$$$$$$$$$$$$$$$$$$$$$$$$$$$$$$$$$$$$$$$$$$$$$$$$$$$$$$$$$$$",
"$$$$$$$$$$$$$$$$$$$$$$$$$$$$$$$$$$$$$$$$$$$$$$$$$$$$$.............$$$$$$$$$$$$$$$$$$$$$$$$$$$$$$$$$$",
"$$$$$$$$$$$$$$$$$$$$$$$$$$$$$$$$$$$$$$$$$$$$$$$$$$... ..o.XXXXXXXX....$$$$$$$$$$$$$$$$$$$$$$$$$$$$$$",
"$$$$$$$$$$$$$$$$$$$$$$$$$$$$$$$$$$$$$$$$$$$$$$$$..  ..oooo.XXXXXXXXXXX.$$$$$$$$$$$$$$$$$$$$$$$$$$$$$",
"$$$$$$$$$$$$$$$$$$$$$$$$$$$$$$$$$$$$$$$$$$$$$............oo.XXXXXXXXXXX.$$$$$$$$$$$$$$$$$$$$$$$$$$$$",
"$$$$$$$$$$$$$$$$$$$$$$$$$$$$$$$$$$$$$$$$$.... .++.+++++++.. .XXXXXXXXXXX.$$$$$$$$$$$$$$$$$$$$$$$$$$$",
"$$$$$$$$$$$$$$$$$$$$$$$$$$$$$$$$$$$$$$$..XXXX.+++.+++++++++..XXXXXXXXXXXX.$$$$$$$$$$$$$$$$$$$$$$$$$$",
"$$$$$$$$$$$$$$$$$.......$$$$..$$$$$......XXXX.++.+++++++++++.XXXXXXXXXXXXX.$$$$$$$$$$$$$$$$$$$$$$$$$",
"$$$$$$$$$$$$$$$..+++++++....XX..$$. .++++..XX.++.++++++++++++.XXXX..........$$$$$$$$$$$$$$$$$$$$$$$$",
"$$$$$$$$$$$$$..+++++++++++...XXXXX .+++++++.X.++.++++++++++++.....+++++++++.....$$$$$$$$$$$$$$$$$$$$",
"$$$$$$$$$$$$.+++++++++++++.XX.XXXX .++++++++.X.++.++++++++....++++++++++++++.XXX.$$$$$$$$$$$$$$$$$$$",
"$$$$$$$$$$$.++++++++++++++.XX.XXXX..++++++++.X.++.++++++..o..+++++++++++++++.XXXX..$$$$$$$$$$$$$$$$$",
"$$$$$$$.....+++++++++++++++.XX..XXX.++++++++.XX.++.++++. ..o.+++++++++++++++.XXXXXX.$$$$$$$$$$$$$$$$",
"$$$$$..XXX...++++++++++++++.XX..XXX..+++++++.XXX....+++.....++++++++++++++++.XXXXXXX.$$$$$$$$$$$$$$$",
"$$$$.XXXXX.++.++++++++++++++.X..XXXX..+++++..XXXXXX......+++++++++++++++++++.XXXXXXXX.$$$$$$$$$$$$$$",
"$$$$.XXXX.++++..+++++++++++++.o.XXXXX......XXXXXXXXXXX.+++++++++++++++++++++.XXXXXXXX.$$$$$$$$$$$$$$",
"$$$.XXXXX.++++++..++++++++++++..XXXXXX.XXXXXXXXXXXXXXX.++++++++++++++++++++.XXXXXXXXXX.$$$$$$$$$$$$$",
"$$$.XXXXX.++++++++.++++++++++++.XXXXXX.XXXXXXXXXXXXXXX.+++++++++++++++++++.XXXXXXXXXXX.$$$$$$$$$$$$$",
"$$$.XXXXX.+++++++++.+++++++++++.XXXXXX.XXXXXXXXXXXXXXX.++++++++++++++++++.XXXXXXXXXXXXX.$$$$$$$$$$$$",
"$$$.XXXXX.++++++++++.++++++++++.XXXXXX.XXXXXXXXXXXXXXXX.+++++++++++++++..XXXXXXXXXXXXXX.$$$$$$$$$$$$",
"$$$.XXXXXX.++++++++++.++++++++++.XXXXX.XXXXXXXXXXXXXXXX.+++++++++++....XXXXXX......XXXX.$$$$$$$$$$$$",
"$$$$.XXXXX.++++++++++.++++++++++.XXXX..XXXXXXXXXXXXXXXXX..++++.....++++......++++++..XX.$$$$$$$$$$$$",
"$$$$.XXXXX......+++++.++++++++++.XX..XXXXXX.............++....+++++++..++++++++++++++..$$$$$$$$$$$$$",
"$$$$$.XXXX..XXXX..+++.+++++++++++..XXX.....@@@@@@@@@@@@@.......++++..+++++++++++++++++..$$$$$$$$$$$$",
"$$$$$.XXXX.X..XXXX.++.++++++++........@@@@@@@@@@@@@@@@@@@@@@@@@..+.+++++++++++++++++..$.$$$$$$$$$$$$",
"$$$$$$..XX.XXX..XXX..+++++++++.@@@@@@@@@@@@@@@@@@@@@@@@@@@@@@@@@@.++++++++++++++++..$$$$.$$$$$$$$$$$",
"$$$$$$$$.X.XXXXX...X.++++++++.@@@@@++++++++@@@@@@@@@@@@@@@@@@@@@.+..++++++++++++..$$$$$$.$$$$$$$$$$$",
"$$$$$$$$$..XXXXXXXXX.++++++++.@@@@@@@@@@@@@+@@@@@@@@@@@@@@@@@@@@.+++..++++++++..$$$$$$$$.$$$$$$$$$$$",
"$$$$$$$$$$..XXXXXXXXX.+...+++.@@@@@@@.....@@@@@@@@@@@@@@@@@@@@@+++...+..++....$$$$$$$$$$$.$$$$$$$$$$",
"$$$$$$$$$$$...XX.......XXX..+.@@@@@@..###..@@@@@@@@@@@@@@@@@@@@+@@@@@.....$$$$$$$$$$$$$$.......$$$$$",
"$$$$$$$$$$$.oo..ooo..XXXXXXX..@@@@@@.##%##.@@@@@@@@@@@@@@@@+++++@@@@@@@@@.$$$$$$$$$$$...X.$$$$$..$$$",
"$$$$$$$$$$$$.o.X...XXXXXXXXXX...@@@@.####.@@@@@@@@@@@@@@@@@@@@.....@@@@@@@.$$$$$$$$$.XXXX.$$$$$$$.$$",
"$$$$$$$$$$$$$..XXXXXXXXXXXXX.XXX.@@@.###..@@@@@@@@@@@@@@@@@@..####.@@@@@@@@.$$$$$$$.XXXXX.$$$$$$$.$$",
"$$$$$$$$$$$$.$$.XXXXXXXXXXXX.XXX.@@@@....@@@@@@@@@@@@@@@@@@@.##%##.@@@@@@@@@.$$$$$$.XXXXX.$$$$$$$$.$",
"$$$$$$$$$$$$.$$$.XXXXXXXXXXX.XXX.@@@@@@@@@@@@@@@@@@@@@@@@@@@.####..@@@@@@@@@.$$$$$$$.XXXX.$$$$$$$$.$",
"$$$$$$$$$$$$.$$$$..XXXXXXXXX.XXX.@@@@@@@@@@@@@@@@@@@@@@@@@@@.###..@@@@@@@@@@@.$$$$$$.XXX.$$$$$$$$$.$",
"$$$$$$$$$$$$.$$$$$$..XXXXXXX.XXX.@@@@@@@@@@@@@@@@@@@@@@@@@@@.....@@@@@@@@@@@@.$$$$$$$...$$$$$$$$$..$",
"$$$$$$$$$$$$$.$$$$$$$....XXX.XXX.@@@@@@@@@@@@@@@@@@@@@@@@@@@@@@@@@@@@@@@@@@@@.$$$$$$$$$$$$$$$....$$$",
"$$$$$$$$$$$$$...$$$$$$$$$.......@@@@@.@@@@@@@@@@@@@@@@@@@@@@@@@@@@@@@@@@@@@@@.$$$$$$$$$$$$$$$$$$$$$$",
"$$$$$$$$$$$$$.. ..$$$$$$$$$$.@@@@@@@@@..@@@@@@@@@@@@@@@@@@@@@@@@@@@@@@@@@@@@@.$$$$$$$$$$$$$$$$$$$$$$",
"$$$$$$$$$$$$$$.  .$$$$$$$$$$.@@@@@@@@@@@.@@@@@@@@@@@@@@@@@@@@@@@@@@@@@@@@@@@@.$$$$$$$$$$$$$$$$$$$$$$",
"$$$$$$$$$$$$$$$..$$$$$$$$$$$.@@@@@@@@@@@@.@@@@@@@@@@@@@@@@@@@@@@@@@@@@@@@@@@@.$$$$$$$$$$$$$$$$$$$$$$",
"$$$$$$$$$$$$$$$$$$$$$$$$$$$$.@@@@@@@@@@@@@..@@@@@@@@@@@@@@@@@@@@@@@@@@@@@@@@@.$$$$$$$$$$$$$$$$$$$$$$",
"$$$$$$$$$$$$$$$$$$$$$$$$$$$$..@@@@@@@@@@@@@@...@@@@@@@@@@@@@@@@@@@@@@@@@@@@@@.$$$$$$$$$$$$$$$$$$$$$$",
"$$$$$$$$$$$$$$$$$$$$$$$$$$$$$.@@@@@@@@@@@@@@@@....@@@@@@@@@@@@@@@@@@@@@@@@@@@.$$$$$$$$$$$$$$$$$$$$$$",
"$$$$$$$$$$$$$$$$$$$$$$$$$$$$$$..@@@@@@@@@@@@@@@@@@...@@@@@@@...@@@@@@@@@@@@@@.$$$$$$$$$$$$$$$$$$$$$$",
"$$$$$$$$$$$$$$$$$$$$$$$$$$$$$$$$.@@@@@@@@@@@@@@@@@@@........@@@@@@@@@@@@@@@@.$$$$$$$$$$$$$$$$$$$$$$$",
"$$$$$$$$$$$$$$$$$$$$$$$$$$$$$$$$$.@@@@@@@@@@@@@@@@@@@@@@@@@@@@@@@@@@@@@@@@@@.$$$$$$$$$$$$$$$$$$$$$$$",
"$$$$$$$$$$$$$$$$$$$$$$$$$$$$$$$$$$..@@@@@@@@@@@@@@@@@@@@@@@@@@@@@@@@@@@@@@@@.$$$$$$$$$$$$$$$$$$$$$$$",
"$$$$$$$$$$$$$$$$$$$$$$$$$$$$$$$$$$$$..@@@@@@@@@@@@@@@@@@@@@@@@@@@@@@@@@@@@@.$$$$$$$$$$$$$$$$$$$$$$$$",
"$$$$$$$$$$$$$$$$$$$$$$$$$$$$$$$$$$$$$$..@@@@@@@@@@@@@@@@@@@@@@@@@@@@@@@@@@@.$$$$$$$$$$$$$$$$$$$$$$$$",
"$$$$$$$$$$$$$$$$$$$$$$$$$$$$$$$$$$$$$$$....@@@@@@@@@@@@@@@@@@@@@@@@@@@@@@@+.$$$$$$$$$$$$$$$$$$$$$$$$",
"$$$$$$$$$$$$$$$$$$$$$$$$$$$$$$$$$$$$$$$$.. ....@@@@@@@@@@@@@@@@@@@@@@@@@@++.$$$$$$$$$$$$$$$$$$$$$$$$",
"$$$$$$$$$$$$$$$$$$$$$$$$$$$$$$$$$$$$$$$$$$.@@@@..@@@@@@@@@@@@@@@@@@@@@@@@+.$$$$$$$$$$$$$$$$$$$$$$$$$",
"$$$$$$$$$$$$$$$$$$$$$$$$$$$$$$$$$$$$$$$$$$.@@@@@@...++++++@@@@@@@@@@@@@+@+.$$$$$$$$$$$$$$$$$$$$$$$$$",
"$$$$$$$$$$$$$$$$$$$$$$$$$$$$$$$$$$$$$$$$$$$.@@@@@@@@......++@@@@++@@@@@++.$$$$$$$$$$$$$$$$$$$$$$$$$$",
"$$$$$$$$$$$$$$$$$$$$$$$$$$$$$$$$$$$$$$$$$$$$..@@@@@@@@@@@@.....@@++++@@..$$$$$$$$$$$$$$$$$$$$$$$$$$$",
"$$$$$$$$$$$$$$$$$$$$$$$$$$$$$$$$$$$$$$$$$$$$$$.@@@@@@@@@@@@@@@@..........$$$$$$$$$$$$$$$$$$$$$$$$$$$",
"$$$$$$$$$$$$$$$$$$$$$$$$$$$$$$$$$$$$$$$$$$$$$$.@@@@@@@@@@@@@.@@.@@@@@@.$$$$$$$$$$$$$$$$$$$$$$$$$$$$$",
"$$$$$$$$$$$$$$$$$$$$$$$$$$$$$$$$$$$$$$$$$$$$$$.@@@@@@@@@@@@@@@@@@@@.@@.$$$$$$$$$$$$$$$$$$$$$$$$$$$$$",
"$$$$$$$$$$$$$$$$$$$$$$$$$$$$$$$$$$$$$$$$$......@@@@@@@@@@@@@@@@@@@@@@@.$$$$$$$$$$$$$$$$$$$$$$$$$$$$$",
"$$$$$$$$$$$$$$$$$$$$$$$$$$$$$$$$$$$............@@@@@@@@@@@@@@@@@@@@@@.$$$$$$$$$$$$$$$$$$$$$$$$$$$$$$",
"$$$$$$$$$$$$$$$$$$$$$$$$$$$$$$$$$$$.OOOOOOOOOOO@@@@@@@@@.@@@@@@@@@@@@.$$$$$$$$$$$$$$$$$$$$$$$$$$$$$$",
"$$$$$$$$$$$$$$$$$$$$$$$$$$$$$$$$$$$.OOOOOOOOOO.@@@@@@@@@.@@@@@@@@@@@@........$$$$$$$$$$$$$$$$$$$$$$$",
"$$$$$$$$$$$$$$$$$$$$$$$$$$$$$$$$$$$.OOOOOOOOOO.@@@@@@@@@.@@@@@@@@@@@@.OOO...O$$$$$$$$$$$$$$$$$$$$$$$",
"$$$$$$$$$$$$$$$$$$$$$$$$$$$$$$$$$$$.OOOOOOOOOO.@@@@@@@@@....@@@@@@@@@.OOO.O..$$$$$$$$$$$$$$$$$$$$$$$",
"$$$$$$$$$$$$$$$$$$$$$$$$$$$$$$$$$$...OOOOOOOOO..@@@@@@@@@@@@@@@@@@@@@.OO.OOO.$$$$$$$$$$$$$$$$$$$$$$$",
"$$$$$$$$$$$$$$$$$$$$$$$$$$$$$$$$$$$..OOOOOOOOOO..@@@@@@@@@@@@@@@@@@@@....OOO.$$$$$$$$$$$$$$$$$$$$$$$",
"$$$$$$$$$$$$$$$$$$$$$$$$$$$$$$$$$$$$...OOOOOOOOO..@@@@@@@@@@@@@@@@@...OOOOOO.$$$$$$$$$$$$$$$$$$$$$$$",
"$$$$$$$$$$$$$$$$$$$$$$$$$$$$$$$$$$$$$$..OOOOOOOOOO..@@@@@@@@@@@@@...OOOOOOOO.$$$$$$$$$$$$$$$$$$$$$$$",
"$$$$$$$$$$$$$$$$$$$$$$$$$$$$$$$$$$$$$$.O..OOOOOOOOO...@@@@@@@@@...OOOOOOOOOO.$$$$$$$$$$$$$$$$$$$$$$$",
"$$$$$$$$$$$$$$$$$$$$$$$$$$$$$$$$$$$$$$.OO..OOOOOOOOOOO.@@@@@@@..OOOOOOOOOOO..$$$$$$$$$$$$$$$$$$$$$$$",
"$$$$$$$$$$$$$$$$$$$$$$$$$$$$$......$$$.OOO..OOOOOOOOO....@@@...OOOOOOOOOOO..$$$$$$$$$$$$$$$$$$$$$$$$",
"$$$$$$$$$$$$$$$$$$$$$$$$$$$..OOOOOO..$.OOOOO..OOOOOO..OOO.....OOOOOOOOOOOO..$$$$$$$$$$$$$$$$$$$$$$$$",
"$$$$$$$$$$$$$$$$$$$$$$$$$..OOOOOOOOOO..OOOOOOO..OOOO.OOO.O..OOOOOOOOOOOO...$$$$$$$$$$$$$$$$$$$$$$$$$",
"$$$$$$$$$$$$$$$$$$$$$$$$$.OOOOOOOOOOOOOOOOOOOOO..OO.OOOO.OOO.OOOOOOOO....O.$$$$$$$$$$$$$$$$$$$$$$$$$",
"$$$$$$$$$$$$$$$$$$$$$$$$.OOOOOOOOOOOOOOOOOOOOOOO.O..OOOO.OOO..OOOOO...OOOO.$$$$$$$$$...$$$$$$$$$$$$$",
"$$$$$$$$$$$$$$$$$$$$$$$$.OOOOOOOOOOOOOOOOOOOOOOOO..OOOOO.OOOO.OOOO..OOOOOO..........OOO..$$$$$$$$$$$",
"$$$$$$$$$$$$$$$$$$$$$$$$.OOOOOOOOOOOOOOOOOOOOOOOOOOOOOOO.OOO..OO..OOOOOOOOOOOOOOOOOOOOOOO.$$$$$$$$$$",
"$$$$$$$$$$$$$$$$$$$$$$$.OOOOOOOOOOOOOOOOOOOOOOOOOOOOOOOO.OOO.OO..OOOOOOOOOOOOOOOOOOOOOOOOO..$$$$$$$$",
"$$$$$$$$$$$$$$$$$$$$$$.OOOOOOOOOOOOOOOOOOOOOOOOOOOOOOOOO.OOO....OOOOOOOOOOOOOOOOOOOOOOOOOOOO.$$$$$$$",
"$$$$$$$$$$$$$$$$$$$$$$.OOOOOOOOOOOOOOOOOOOOOOOOOOOOOOOOO.OOOOOOOOOOOOOOOOOOOOOOOOOOOOOOOOOOO.$$$$$$$",
"$$$$$$$$$$$$$$$$$$$$$.OOOOOOOOOOOOOOOOOOOOOOOOOOOOOOOOOO.OOOOOOOOOOOOOOOOOOOOOOOOOOOOOOOOOOO.$$$$$$$",
"$$$$$$$$$$$$$$$$$$$$$.OOOOOOOOOOOOOOOOOOOOOOOOOOOOOOOOO.OO.OOOOOOOOOOOOOOOOOOOOOOOOOOOOOOOOOO.$$$$$$",
"$$$$$$$$$$$$$$$$$$$$.OOOOOOOOOOOOOOOOOOOOOOOOOOOOOOOOOO.OO.OOOOOOOOOOOOOOOOOOOOOOOOOOOOOOOOOOO.$$$$$",
"$$$$$$$$$$$$$$$$$$$$.OOOOOOOOOOOOOOOOOOOOOOOOOOOOOOOOOO.OOOOOOOOOOOOOOOOOOOOOOOOOOOOOOOOOOOOOOO.$$$$",
"$$$$$$$$$$$$$$$$$$$$.OOOOOOOOOOOOOOOOOOOOOOOOOOOOOOOOOO.OOOOOOOOOOOOOOOOOOOOOOOOOOOOOOOOOOOOOOO.$$$$",
"$$$$$$$$$$$$$$$$$$$$.OOOOOOOOOOOOOOOOOOOOOOOOOOOOOOOOOO...OOOOOOOOOOOOOOOOOOOOOOOOOOOOOOOOOOOOOO.$$$",
"$$$$$$$$$$$$$$$$$$$$.OOOOOOOOOOOOOOOOOOOOOOOOOOOOOOOOOO.OOOOOOOOOOOOOOOOOOOOOOOOOOOOOOOOOOOOOOOO.$$$",
"$$$$$$$$$$$$$$$$$$$.OOOOOOOOOOOOOOOOOOOOOOOOOOOOOOOOOO..OOOOOOOOOOOOOOOOOOOOOOOOOOOOOOOOOOOOOOOO.$$$",
"$$$$$$$$$$$$$$$$$$$.OOOOOOOOOOOOOOOOOOOOOOOOOOOOOOOOOO.OOOOOOOOOOOOOOOOOOOOOOOOOOOOOOOOOOOOOOOOO.$$$",
"$$$$$$$$$$$$$$$$$$.OOOOOOOOOOOOOOOOOOOOOOOOOOOOOOOOOOO.O.OOOOOOOOOOOOOOOOOOOOOOOOOOOOOOOOOOOOOOOO.$$",
"$$$$$$$$$$$$$$$$$$.OOOOOOOOOOOOOOOOOOOOOOOOOOOOOOOOOOO.OOOOOOOOOOOOOOOOOOOOOOOOOOOOOOOOOOOOOOOOOO.$$",
"$$$$$$$$$$$$$$$$$$.OOOOOOOOOOOOOOOOOOOOOOOOOOOOOOOOOOO.OOOOOOOOOOOOOOOOOOOOOOOOOOOOOOOOOOOOOOOOOO.$$",
"$$$$$$$$$$$$$$$$$$.OOOOOOOOOOOOOOOOOOOOOOOOOOOOOOOOOOO.O...OOOOOOOOOOOOOOOOOOOOOOOOOOOOOOOOOOOOOO.$$",
"$$$$$$$$$$$$$$$$$$.OOOOOOOOOOOOOOOOOOOOOOOOOOOOOOOOOOO.OOOOOOOOOOOOOOOOOOOOOOOOOOOOOOOOOOOOOOOOOO.$$",
"$$$$$$$$$$$$$$$$$$.OOOOOOOOOOOOOOOOOOOOOOOOOOOOOOOOOOO.OOOOOOOOOOOOOOOOOOOOOOOOOOOOOOOOOOOOOOOOOO.$$",
"$$$$$$$$$$$$$$$$$.OOOOOOOOOOOOOOOOOOOOOOOOOOOOOOOOOOOOOOOOOOOOOOOOOOOOOOOOOOOOOOOOOOOOOOOOOOOOOO..$$"
};
