/* XPM */
static char *_f5b5b548d4a4e6cc14e8cd3657584853BB8T9e2UMVFwBVE[] = {
/* columns rows colors chars-per-pixel */
"128 128 9 1 ",
"  c #0D171F",
". c #0D2829",
"X c #750D10",
"o c #B34428",
"O c #D16630",
"+ c #B3508D",
"@ c #53ACCC",
"# c #CDF1F4",
"$ c #F1F4F7",
/* pixels */
".. ..............$......... .....................$+$......... .....................$+$......... .....................$+$........",
"$$ $$$$$$$$$$$$$$$$$$$$$$$$ $$$$$$$$$$$$$$$$$$$$$$+$$$$$$$$$$ $$$$$$$$$$$$$$$$$$$$$$+$$$$$$$$$$ $$$$$$$$$$$$$$$$$$$$$$+$$$$$$$$$",
"++++++++++++++++++++++++++++++++++++++++++++++++++++++++++++++++++++++++++++++++++++++++++++++++++++++++++++++++++++++++++++++++",
"$$$$$$$$$$$$$$$$$$$$$$$$$$$$$$$$$$+$$$$$$$$$$$$$$$$$$$$$$$$$$$$$$$$$+$$$$$$$$$$$$$$$$$$$$$$$$$$$$$$$$$+$$$$$$$$$$$$$$$$$$$$$$$$$",
".$XXXXXXXXXXXXXXXXXXXXXXXXXXXXXX.$+$XXXXXXXXXXXXXXXXXXXXXXXXXXXXXX.$+$XXXXXXXXXXXXXXXXXXXXXXXXXXXXXX.$+$XXXXXXXXXXXXXXXXXXXXXXXX",
" $XXXXXXXXXXXXXXX  XXXXXXXX   XX $+$XXXXXXXXXXXXXXX  XXXXXXXX   XX $+$XXXXXXXXXXXXXXX  XXXXXXXX   XX $+$XXXXXXXXXXXXXXX  XXXXXXX",
" $........XX XXXXXX  XXX   XXXXX $+$........XX XXXXXX  XXX   XXXXX $+$........XX XXXXXX  XXX   XXXXX $+$........XX XXXXXX  XXX  ",
".$XXXXXXXX..............XX  .XXX.$+$XXXXXXXX..............XX  .XXX.$+$XXXXXXXX..............XX  .XXX.$+$XXXXXXXX..............XX",
".$XXXXX  XXXXXXXXXXXXXXX.........$+$XXXXX  XXXXXXXXXXXXXXX.........$+$XXXXX  XXXXXXXXXXXXXXX.........$+$XXXXX  XXXXXXXXXXXXXXX..",
".$XXXXX XXXXXXX XXXXXXXX.X.X.X X.$+$XXXXX XXXXXXX XXXXXXXX.X.X.X X.$+$XXXXX XXXXXXX XXXXXXXX.X.X.X X.$+$XXXXX XXXXXXX XXXXXXXX.X",
".$X.....X XXXXX X XXXXXX.X.X.X.X.$+$X.....X XXXXX X XXXXXX.X.X.X.X.$+$X.....X XXXXX X XXXXXX.X.X.X.X.$+$X.....X XXXXX X XXXXXX.X",
".$XXXXXX..........XX XXXX.X X.X..$+$XXXXXX..........XX XXXX.X X.X..$+$XXXXXX..........XX XXXX.X X.X..$+$XXXXXX..........XX XXXX.",
".$XXXXXXXXXX XXXXX.. ..... .X X..$+$XXXXXXXXXX XXXXX.. ..... .X X..$+$XXXXXXXXXX XXXXX.. ..... .X X..$+$XXXXXXXXXX XXXXX.. .....",
".$XXXX XXXXXXXXXXXXXXXXX X  .....$+$XXXX XXXXXXXXXXXXXXXXX X  .....$+$XXXX XXXXXXXXXXXXXXXXX X  .....$+$XXXX XXXXXXXXXXXXXXXXX X",
".$XXXXX  XXXXXXXXXXXXX   X X.. ..$+$XXXXX  XXXXXXXXXXXXX   X X.. ..$+$XXXXX  XXXXXXXXXXXXX   X X.. ..$+$XXXXX  XXXXXXXXXXXXX   X",
".$......... .....................$+$......... .....................$+$......... .....................$+$......... ..............",
"$$$$$$$$$$$ $$$$$$$$$$$$$$$$$$$$$$+$$$$$$$$$$ $$$$$$$$$$$$$$$$$$$$$$+$$$$$$$$$$ $$$$$$$$$$$$$$$$$$$$$$+$$$$$$$$$$ $$$$$$$$$$$$$$",
"++++++++++++++++++++++++++++++++++++++++++++++++++++++++++++++++++++++++++++++++++++++++++++++++++++++++++++++++++++++++++++++++",
"$$$$$$$$$$$$$$$$+$$$$$$$$$$$$$$$$$$$$$$$$$$$$$$$$$+$$$$$$$$$$$$$$$$$$$$$$$$$$$$$$$$$+$$$$$$$$$$$$$$$$$$$$$$$$$$$$$$$$$+$$$$$$$$$",
"XXXXXXXXXXXXXX.$+$XXXXXXXXXXXXXXXXXXXXXXXXXXXXXX.$+$XXXXXXXXXXXXXXXXXXXXXXXXXXXXXX.$+$XXXXXXXXXXXXXXXXXXXXXXXXXXXXXX.$+$XXXXXXXX",
" XXXXXXXX   XX $+$XXXXXXXXXXXXXXX  XXXXXXXX   XX $+$XXXXXXXXXXXXXXX  XXXXXXXX   XX $+$XXXXXXXXXXXXXXX  XXXXXXXX   XX $+$XXXXXXXX",
"X  XXX   XXXXX $+$........XX XXXXXX  XXX   XXXXX $+$........XX XXXXXX  XXX   XXXXX $+$........XX XXXXXX  XXX   XXXXX $+$........",
"......XX  .XXX.$+$XXXXXXXX..............XX  .XXX.$+$XXXXXXXX..............XX  .XXX.$+$XXXXXXXX..............XX  .XXX.$+$XXXXXXXX",
"XXXXXX.........$+$XXXXX  XXXXXXXXXXXXXXX.........$+$XXXXX  XXXXXXXXXXXXXXX.........$+$XXXXX  XXXXXXXXXXXXXXX.........$+$XXXXX  X",
"XXXXXX.X.X.X X.$+$XXXXX XXXXXXX XXXXXXXX.X.X.X X.$+$XXXXX XXXXXXX XXXXXXXX.X.X.X X.$+$XXXXX XXXXXXX XXXXXXXX.X.X.X X.$+$XXXXX XX",
"XXXXXX.X.X.X.X.$+$X.....X XXXXX X XXXXXX.X.X.X.X.$+$X.....X XXXXX X XXXXXX.X.X.X.X.$+$X.....X XXXXX X XXXXXX.X.X.X.X.$+$X.....X ",
"XX XXXX.X X.X..$+$XXXXXX..........XX XXXX.X X.X..$+$XXXXXX..........XX XXXX.X X.X..$+$XXXXXX..........XX XXXX.X X.X..$+$XXXXXX..",
".. ..... .X X..$+$XXXXXXXXXX XXXXX.. ..... .X X..$+$XXXXXXXXXX XXXXX.. ..... .X X..$+$XXXXXXXXXX XXXXX.. ..... .X X..$+$XXXXXXXX",
"XXXXXX X  .....$+$XXXX XXXXXXXXXXXXXXXXX X  .....$+$XXXX XXXXXXXXXXXXXXXXX X  .....$+$XXXX XXXXXXXXXoooooooo X  .....$+$XXXX XXX",
"XXXX   X X.. ..$+$XXXXX  XXXXXXXXXXXXX   X X.. ..$+$XXXXX  XXXXXoooooooooooooooooooooooooooooooooooooooooooo X X.. ..$+$XXXXX  X",
"...............$+$......... ......oooooooooooooooooooooooooooooooooooooooooooooooooooooooooooooooooooooooooo.........$+$........",
"$$$$$$$$$$$$$$$$+$$$$$$$$$$ $$$$$$oooooooooooooooooooooooooooooooooooooooooooooooooooooooooooooooooooooooooo$$$$$$$$$$+$$$$$$$$$",
"++++++++++++++++++++++++++++++++++oooooooooooooooooooooooooooooooooooooooooooooooooooooooooooooooooooooOoooo++++++++++++++++++++",
"$+$$$$$$$$$$$$$$$$$$$$$$$$$$$$$$$$ooooooooooooooooooooooooooooooooo@@ooooo@@@@@@@@@@@@@@@@@@@@@@@@@@OOOOoooo$$$$$$$$$$$$$$$$$$$$",
"$+$XXXXXXXXXXXXXXXXXXXXXXXXXXXXXX.ooooOOOOO@@@@@@#####@@@@@@@@@@@@@@@oooo@@@@@@@@@@@@####@@@@@####@@OOOOooooXXXXXXXXXXXXXXXXXXXX",
"$+$XXXXXXXXXXXXXXX  XXXXXXXX   XX ooooOOOOO@@@@@###################@@oooo@@@@@@@@@@################@OOOOooooXXXXXXXXXXXX  XXXXXX",
"$+$........XX XXXXXX  XXX   XXXXX ooooOOOOO@@@@#####################@oooo@@@@@@@@@@################@OOOOoooo.....XX XXXXXX  XXX ",
"$+$XXXXXXXX..............XX  .XXX.ooooOOOOO@@@@#####################@oooo@@@@@@@@@#################@OOOOooooXXXXX..............X",
"$+$XXXXX  XXXXXXXXXXXXXXX.........ooooOOOOO@@@@#####################@oooo@@@@@@####################@OOOOooooXX  XXXXXXXXXXXXXXX.",
"$+$XXXXX XXXXXXX XXXXXXXX.X.X.X X.ooooOOOOO@@@@#####################@oooo@@@@@@####################@OOOOooooXX XXXXXXX XXXXXXXX.",
"$+$X.....X XXXXX X XXXXXX.X.X.X.X.ooooOOOOO@@@@#####################@oooo@@@@@@####################OOOOOoooo...X XXXXX X XXXXXX.",
"$+$XXXXXX..........XX XXXX.X X.X..ooooOOOOO@@@@#######@@@#########@@@oooo@@@@@@####################OOOOOooooXXX..........XX XXXX",
"$+$XXXXXXXXXX XXXXX.. ..... .X X..oooooOOOO@@@@@@#####@@@@@@@@@@@@@@ooooo@@@@@@@@@@@#########@@@@@@OOOOOooooXXXXXXX XXXXX.. ....",
"$+$XXXX XXXXXXXXXXXXXXXXX X  .....oooooOOOO@@@@@@#####@@@@@@@@@@@@@@ooooo@@@@@@@@@@@@########@@@@@@@OOOOooooX XXXXXXXXXXXXXXXXX ",
"$+$XXXXX  XXXXXXXXXXXXX   X X.. ..oooooOOOO@@@@@@@@@@@@@@@@@@@@@@@@@ooooo@@@@@@@@@@@@@@@@@@@@@@@@@@@OOOOooooXX  XXXXXXXXXXXXX   ",
"$+$......... .....................$ooooOOOO@@@@@@@@@@@@@@@@@@@@@@@@@oooo@@@@@@@@@@@@@@@@@@@@@@@@@@@@OOOOoooo...... .............",
"$+$$$$$$$$$$ $$$$$$$$$$$$$$$$$$$$$$ooooOOOO@@@@@@@@@@@@@@@@@@@@@@@@@oooo@@@@@@@@@@@@@@@@@@@@@@@@@@@@OOOOoooo$$$$$$ $$$$$$$$$$$$$",
"+++++++++++++++++$$$$$$$$$$$$$$$$$$ooooOOOOO@@@@@@@@@@@@@@@@@@@@@@@@oooo@@@@@@@@@@@@@@@@@@@@@@@@@@@@OOOOoooo$$$$$$$$$$+$$$$$$$$$",
"$$$$$$$$$$$$$$$$+$XXXXXXXXXXXXXXXXXooooOOOOO@@@@@@@@@@@@@@@@@@@@@@@@oooo@@@@@@@@@@@@@@@@@@@@@@@@@@@@OOOOooooXXXXXXXX.$+$XXXXXXXX",
"XXXXXXXXXXXXXX.$+$XXXXXXXXXXXXXXX  ooooOOOO$@@@@@@@@@@@@@@@@@@@@@@@@oooo@@@@@@@@@@@@@@@@@@@@@@@@@@@@OOOOooooXXX   XX $+$XXXXXXXX",
" XXXXXXXX   XX $+$........XX XXXXXXooooOOOO$@@@@@@@@@@@@@#########@@oooo@@@@@@@@@@@@@@@@@@@@@@@@@@@@OOOOoooo   XXXXX $+$........",
"X  XXX   XXXXX $+$XXXXXXXX.........ooooOOOOO$@@#####################oooo##@@@@@@@@@@@@@@@@@@@@@@@@@@OOOOooooXX  .XXX.$+$XXXXXXXX",
"......XX  .XXX.$+$XXXXX  XXXXXXXXXXooooOOOOO$@@#####################oooo##@@@@@@@@@@@@@@@@@@@@@@@@@@OOOOoooo.........$+$XXXXX  X",
"XXXXXX.........$+$XXXXX XXXXXXX XXXooooOOOOO$@@#####################oooo##@@@@@@@@@@@@@@@@@@@@@@@@@@OOOOoooo.X.X.X X.$+$XXXXX XX",
"XXXXXX.X.X.X X.$+$X.....X XXXXX X XooooOOOOO$@@#####################oooo##@@@@@@@@@@@@@############@OOOOoooo.X.X.X.X.$+$X.....X ",
"XXXXXX.X.X.X.X.$+$XXXXXX..........XooooOOOOO$@@@@@@@################oooo##@@@@@@@@###############oooooooooooX.X X.X..$+$XXXXXX..",
"XX XXXX.X X.X..$+$XXXXXXXXXX XXXXX.ooooOOOOO$@@@@@@@@@@@@@@@######@@oooo@@@@oooooooooooooooooooooooooooooooo.. .X X..$+$XXXXXXXX",
".. ..... .X X..$+$XXXX XXXXXXXXXXXoooooooooooooooooooooooooooooooooooooooooooooooooooooooooooooooooooooooooo X  .....$+$XXXX XXX",
"XXXXXX X  .....$+$XXXXX  XXXXXXXXXoooooooooooooooooooooooooooooooooooooooooooooooooooooooooooooooooooooooooo X X.. ..$+$XXXXX  X",
"XXXX   X X.. ..$+$......... ......ooooooooooooooooooooooooooooooooooooooooooooooooooooooooooooooooooOOOoooo..........$+$........",
"...............$+$$$$$$$$$$ $$$$$$ooooooooooooooooooooooooooooooooooooooooooooo@@@@@@@@@@@@@@@@@@@@@OOOoooo$$$$$$$$$$$+$$$$$$$$$",
"$$$$$$$$$$$$$$$$++++++++++++++++++oooooOOOOO$@@@@@@@@@@@@@@@@@@@@@@@@oooo@@@@@@@@@@@@@@@@@@@@@@@@@@@OOOoooo+++++++++++++++++++++",
"++$$$$$$$$$$$$$$$$$$$$$$$$$$$$$$$$oooooOOOOOO$@@@@@@@@@@@@@@@@@@@@@@@oooo@@@@@@@@@@@@@@@@@@@@@@@@@@@OOOoooo$$$$$$$$$$$$$$$$$$$$$",
"$+$XXXXXXXXXXXXXXXXXXXXXXXXXXXXXX.ooooOOOOOOO$@@@@@@@@@@@@@@@@@@@@@@@oooo@@@@@@@@@@@@@@@@@@@@@@@@@@@OOOooooXXXXXXXXXXXXXXXXXXXXX",
"$+$XXXXXXXXXXXXXXX  XXXXXXXX   XX ooooOOOOOOO$@@@@@@@@@@@@@@@@@@@@@@@oooo@@@@@@@@@@@@@@@@@@@@@@@@@@@OOOooooXXXXXXXXXXXXX  XXXXXX",
"$+$........XX XXXXXX  XXX   XXXXX ooooOOOOOOOO@@@@@@@@@@@@@@@@@@@@@@@oooo@@@@@@@@@@@@@@@@@@@@@@@@@@@OOOoooo......XX XXXXXX  XXX ",
"$+$XXXXXXXX..............XX  .XXX.ooooOOOOOOOO@@@@@@@@@@@@@@@@@@@@@@@oooo@@@@@@@@@@@@@@@@@@@@@@@@@@@OOOooooXXXXXX..............X",
"$+$XXXXX  XXXXXXXXXXXXXXX.........ooooOOOOOOOO@@@@@@@@@@@@@@@@@@@@@@@oooo@@@@@@@@@@@@@@@@@@@@@@@@@@OOOOooooXXX  XXXXXXXXXXXXXXX.",
"$+$XXXXX XXXXXXX XXXXXXXX.X.X.X X.ooooOOOOOOOO@@@@@@@@@@@@@@@@@@@@@@@oooo@@@@@@@@@@@@@@@@@@@@@@@@@@OOOOooooXXX XXXXXXX XXXXXXXX.",
"$+$X.....X XXXXX X XXXXXX.X.X.X.X.ooooOOOOOOOO@@@@@@@@@@@@@@@@@@@@@@ooooo@@@@@@@@@@@@@@@@@@@@@@@@@@OOOOoooo....X XXXXX X XXXXXX.",
"$+$XXXXXX..........XX XXXX.X X.X.oooooOOOOOOOO@@@@@@@@@@@@@@@@@@@@@@ooooo@@@@@@@@@@@@@@@@@@@@@@@@@@OOOOooooXXXX..........XX XXXX",
"$+$XXXXXXXXXX XXXXX.. ..... .X X.oooooOOOOOOOO@@@@@@@@@@@@@@@@@@@@@@ooooo@@@@@@@@@@@@@@@@@@@@@@@@@@OOOOooooXXXXXXXX XXXXX.. ....",
"$+$XXXX XXXXXXXXXXXXXXXXX X  ....oooooOOOOOOOO@@@@@@@@@@@@@@@@@@@@@@oooo@@@@@@@@@@@@@@@@@@@@@@@@@@@OOOOooooXX XXXXXXXXXXXXXXXXX ",
"$+$XXXXX  XXXXXXXXXXXXX   X X.. .oooooOOOOOOOO@@@@@@@@@@@@@@@@@@@@@@oooo@@@@@@@@@@@@@@@@@@@@@@@@@@@OOOOooooXXX  XXXXXXXXXXXXX   ",
"$+$......... ....................oooooOOOOOOOO@@@@@@@@@@@@@@@@@@@@@@ooooo@@@@@@@@@@@@@@@@@@@@@@@@@@OOOOoooo....... .............",
"$+$$$$$$$$$$ $$$$$$$$$$$$$$$$$$$$oooooOOOOOOOO@@@@@@@@@@@@@@@@@@@@@@ooooo@@@@@@@@@@@@@@@@@@@@@@@@@@OOOOoooo$$$$$$$ $$$$$$$$$$$$$",
"$++++++++++++++++++++++++++++++++oooooOOOOOOO@@@@@@@@@@@@@@@@@@@@@@@ooooo@@@@@@@@@@@@@@@@@@@@@@@@@@OOOOoooo+++++++++++++++++++++",
"$$$$$$$$$$$$$$$$+$$$$$$$$$$$$$$$$oooooOOOOOOO@@@@@@@@@@@@@@@@@@@@@@@@oooo@@@@@@@@@@@@@@@@@@@@@@@@@@OOOOoooo$$$$$$$$$$$+$$$$$$$$$",
"XXXXXXXXXXXXXX.$+$XXXXXXXXXXXXXXXoooooOOOOOOO@@@@@@@@@@@@@@@@@@@@@@@@oooo@@@@@@@@@@@@@@@@@@@@@@@@@@OOOOooooXXXXXXXXX.$+$XXXXXXXX",
" XXXXXXXX   XX $+$XXXXXXXXXXXXXXXoooooOOOOOOO@@@@@@@@@@@@@@@@@@@@@@@@oooo@@@@@@@@@@@@@@@@@@@@@@@@@@OOOOooooXXXX   XX $+$XXXXXXXX",
"X  XXX   XXXXX $+$........XX XXXXoooooOOOOOO@@@@@@@@@@@@@@@@@@@@@@@@@ooooo@@@@@@@@@@@@@@@@@@@@@@@@@OOOOooooX   XXXXX $+$........",
"......XX  .XXX.$+$XXXXXXXX.......oooooOOOOOO@@@@@@@@@@@@@@@@@@@@@@@@@ooooo@@@@@@@@@@@@@@@@@@@@@@@@@OOOOoooo.XX  .XXX.$+$XXXXXXXX",
"XXXXXX.........$+$XXXXX  XXXXXXXXoooooOOOOOO@@@@@@@@@@@@@@@@@@@@@@@@@ooooo@@@@@@@@@@@@@@@@@@@@@@@@@OOOOooooo.........$+$XXXXX  X",
"XXXXXX.X.X.X X.$+$XXXXX XXXXXXX XoooooOOOOOO@@@@@@@@@@@@@@@@@@@@@@@@@@oooo@@@@@@@@@@@@@@@@@@@@@@@@@OOOOooooo.X.X.X X.$+$XXXXX XX",
"XXXXXX.X.X.X.X.$+$X.....X XXXXX X ooooOOOOOO@@@@@@@@@@@@@@@@@@@@@@@@@@oooo@@@@@@@@@@@@@@@@@@@@@@@@@OOOOooooo.X.X.X.X.$+$X.....X ",
"XX XXXX.X X.X..$+$XXXXXX..........ooooOOOOOO@@@@@@@@@@@@@@@@@@@@@@@@@@oooo@@@@@@@@@@@@@@@@@@@@@@@@@OOOOOooooX.X X.X..$+$XXXXXX..",
".. ..... .X X..$+$XXXXXXXXXX XXXXXooooOOOOOO@@@@@@@@@@@@@@@@@@@@@@@@@@oooo@@@@@@@@@@@@@@@@@@@@@@@@ooooooooooooo.X X..$+$XXXXXXXX",
"XXXXXX X  .....$+$XXXX XXXXXXXXXXXooooOOOOOO@@@@@@@@@@@@@@@@@@@@@@@@@@oooo@@@@@@@@@@@@ooooooooooooooooooooooooo .....$+$XXXX XXX",
"XXXX   X X.. ..$+$XXXXX  XXXXXXXXXooooooooooooo@@@@@@@@@@@@@@@@@@@@@@@oooooooooooooooooooooooooooooooooooooooooX.. ..$+$XXXXX  X",
"...............$+$......... ......ooooooooooooo@@@@@@@@@@@@@ooooooooooooooooooooooooooooooooooooooooooooooooooo......$+$........",
"$$$$$$$$$$$$$$$$+$$$$$$$$$$ $$$$$oooooooooooooooooooooooooooooooooooooooooooooooooooooooooooooooooooooooooooooo$$$$$$$+$$$$$$$$$",
"+++++++++++++++++++++++++++++++++oooooooooooooooooooooooooooooooooooooooooooooooooooooooooooooooooooooooooooooo+++++++++++++++++",
"$+$$$$$$$$$$$$$$$$$$$$$$$$$$$$$$$oooooooooooooooooooooooooooooooooooooooooooooooooooooooooooooooooooooooooooooo$$$$$$$$$$$$$$$$$",
"$+$XXXXXXXXXXXXXXXXXXXXXXXXXXXXXXooooooooooooooooooooooooooooooooooooooooooooooooooooooooooooooooooooooooooooooXXXXXXXXXXXXXXXXX",
"$+$XXXXXXXXXXXXXXX  XXXXXXXX   XXooooooooooooooooooooooooooooooooooooooooooooooooooooooooooooooooooooooooooooXXXXXXXXXXX  XXXXXX",
"$+$........XX XXXXXX  XXX   XXXXXoooooooooooooooooooooooooooooooooooooooooooooooooooooooooooooooooooooooooooo....XX XXXXXX  XXX ",
"$+$XXXXXXXX..............XX  .XXXooooooooooooooooooooooooooooooooooooooooooooooooooooooooooooXX  .XXoooooooooXXXX..............X",
"$+$XXXXX  XXXXXXXXXXXXXXX........oooooooooooooooooooooooooooooooooooooooooXX  XXXXXXXXXXXXXXX.........$+$XXXXX  XXXXXXXXXXXXXXX.",
"$+$XXXXX XXXXXXX XXXXXXXX.X.X.X X.$+$XXoooooooooooooooooooooooooo X.$+$XXXXX XXXXXXX XXXXXXXX.X.X.X X.$+$XXXXX XXXXXXX XXXXXXXX.",
"$+$X.....X XXXXX X XXXXXX.X.X.X.X.$+$X.....X XXXXX X XXXXXX.X.X.X.X.$+$X.....X XXXXX X XXXXXX.X.X.X.X.$+$X.....X XXXXX X XXXXXX.",
"$+$XXXXXX..........XX XXXX.X X.X..$+$XXXXXX..........XX XXXX.X X.X..$+$XXXXXX..........XX XXXX.X X.X..$+$XXXXXX..........XX XXXX",
"$+$XXXXXXXXXX XXXXX.. ..... .X X..$+$XXXXXXXXXX XXXXX.. ..... .X X..$+$XXXXXXXXXX XXXXX.. ..... .X X..$+$XXXXXXXXXX XXXXX.. ....",
"$+$XXXX XXXXXXXXXXXXXXXXX X  .....$+$XXXX XXXXXXXXXXXXXXXXX X  .....$+$XXXX XXXXXXXXXXXXXXXXX X  .....$+$XXXX XXXXXXXXXXXXXXXXX ",
"$+$XXXXX  XXXXXXXXXXXXX   X X.. ..$+$XXXXX  XXXXXXXXXXXXX   X X.. ..$+$XXXXX  XXXXXXXXXXXXX   X X.. ..$+$XXXXX  XXXXXXXXXXXXX   ",
"$+$......... .....................$+$......... .....................$+$......... .....................$+$......... .............",
"$+$$$$$$$$$$ $$$$$$$$$$$$$$$$$$$$$$+$$$$$$$$$$ $$$$$$$$$$$$$$$$$$$$$$+$$$$$$$$$$ $$$$$$$$$$$$$$$$$$$$$$+$$$$$$$$$$ $$$$$$$$$$$$$",
"++++++++++++++++++++++++++++++++++++++++++++++++++++++++++++++++++++++++++++++++++++++++++++++++++++++++++++++++++++++++++++++++",
"$$$$$$$$$$$$$$$$+$$$$$$$$$$$$$$$$$$$$$$$$$$$$$$$$$+$$$$$$$$$$$$$$$$$$$$$$$$$$$$$$$$$+$$$$$$$$$$$$$$$$$$$$$$$$$$$$$$$$$+$$$$$$$$$",
"XXXXXXXXXXXXXX.$+$XXXXXXXXXXXXXXXXXXXXXXXXXXXXXX.$+$XXXXXXXXXXXXXXXXXXXXXXXXXXXXXX.$+$XXXXXXXXXXXXXXXXXXXXXXXXXXXXXX.$+$XXXXXXXX",
" XXXXXXXX   XX $+$XXXXXXXXXXXXXXX  XXXXXXXX   XX $+$XXXXXXXXXXXXXXX  XXXXXXXX   XX $+$XXXXXXXXXXXXXXX  XXXXXXXX   XX $+$XXXXXXXX",
"X  XXX   XXXXX $+$........XX XXXXXX  XXX   XXXXX $+$........XX XXXXXX  XXX   XXXXX $+$........XX XXXXXX  XXX   XXXXX $+$........",
"......XX  .XXX.$+$XXXXXXXX..............XX  .XXX.$+$XXXXXXXX..............XX  .XXX.$+$XXXXXXXX..............XX  .XXX.$+$XXXXXXXX",
"XXXXXX.........$+$XXXXX  XXXXXXXXXXXXXXX.........$+$XXXXX  XXXXXXXXXXXXXXX.........$+$XXXXX  XXXXXXXXXXXXXXX.........$+$XXXXX  X",
"XXXXXX.X.X.X X.$+$XXXXX XXXXXXX XXXXXXXX.X.X.X X.$+$XXXXX XXXXXXX XXXXXXXX.X.X.X X.$+$XXXXX XXXXXXX XXXXXXXX.X.X.X X.$+$XXXXX XX",
"XXXXXX.X.X.X.X.$+$X.....X XXXXX X XXXXXX.X.X.X.X.$+$X.....X XXXXX X XXXXXX.X.X.X.X.$+$X.....X XXXXX X XXXXXX.X.X.X.X.$+$X.....X ",
"XX XXXX.X X.X..$+$XXXXXX..........XX XXXX.X X.X..$+$XXXXXX..........XX XXXX.X X.X..$+$XXXXXX..........XX XXXX.X X.X..$+$XXXXXX..",
".. ..... .X X..$+$XXXXXXXXXX XXXXX.. ..... .X X..$+$XXXXXXXXXX XXXXX.. ..... .X X..$+$XXXXXXXXXX XXXXX.. ..... .X X..$+$XXXXXXXX",
"XXXXXX X  .....$+$XXXX XXXXXXXXXXXXXXXXX X  .....$+$XXXX XXXXXXXXXXXXXXXXX X  .....$+$XXXX XXXXXXXXXXXXXXXXX X  .....$+$XXXX XXX",
"XXXX   X X.. ..$+$XXXXX  XXXXXXXXXXXXX   X X.. ..$+$XXXXX  XXXXXXXXXXXXX   X X.. ..$+$XXXXX  XXXXXXXXXXXXX   X X.. ..$+$XXXXX  X",
"...............$+$......... .....................$+$......... .....................$+$......... .....................$+$........",
"$$$$$$$$$$$$$$$$+$$$$$$$$$$ $$$$$$$$$$$$$$$$$$$$$$+$$$$$$$$$$ $$$$$$$$$$$$$$$$$$$$$$+$$$$$$$$$$ $$$$$$$$$$$$$$$$$$$$$$+$$$$$$$$$",
"++++++++++++++++++++++++++++++++++++++++++++++++++++++++++++++++++++++++++++++++++++++++++++++++++++++++++++++++++++++++++++++++",
"$+$$$$$$$$$$$$$$$$$$$$$$$$$$$$$$$$$+$$$$$$$$$$$$$$$$$$$$$$$$$$$$$$$$$+$$$$$$$$$$$$$$$$$$$$$$$$$$$$$$$$$+$$$$$$$$$$$$$$$$$$$$$$$$",
"$+$XXXXXXXXXXXXXXXXXXXXXXXXXXXXXX.$+$XXXXXXXXXXXXXXXXXXXXXXXXXXXXXX.$+$XXXXXXXXXXXXXXXXXXXXXXXXXXXXXX.$+$XXXXXXXXXXXXXXXXXXXXXXX",
"$+$XXXXXXXXXXXXXXX  XXXXXXXX   XX $+$XXXXXXXXXXXXXXX  XXXXXXXX   XX $+$XXXXXXXXXXXXXXX  XXXXXXXX   XX $+$XXXXXXXXXXXXXXX  XXXXXX",
"$+$........XX XXXXXX  XXX   XXXXX $+$........XX XXXXXX  XXX   XXXXX $+$........XX XXXXXX  XXX   XXXXX $+$........XX XXXXXX  XXX ",
"$+$XXXXXXXX..............XX  .XXX.$+$XXXXXXXX..............XX  .XXX.$+$XXXXXXXX..............XX  .XXX.$+$XXXXXXXX..............X",
"$+$XXXXX  XXXXXXXXXXXXXXX.........$+$XXXXX  XXXXXXXXXXXXXXX.........$+$XXXXX  XXXXXXXXXXXXXXX.........$+$XXXXX  XXXXXXXXXXXXXXX."
};
